<svg width="48" height="48" viewBox="0 0 48 48" fill="none" xmlns="http://www.w3.org/2000/svg">
<path fill-rule="evenodd" clip-rule="evenodd" d="M0 4C0 1.79087 1.79087 0 4 0H44C46.2092 0 48 1.79088 48 4V44C48 46.2092 46.2092 48 44 48H4C1.79088 48 0 46.2092 0 44V4ZM4 2C2.89543 2 2 2.89543 2 4V44C2 45.1046 2.89542 46 4 46H44C45.1046 46 46 45.1046 46 44V4C46 2.89542 45.1046 2 44 2H4Z" fill="#C8C8C8"/>
<path fill-rule="evenodd" clip-rule="evenodd" d="M38 19H10C9.44772 19 9 19.4477 9 20V28C9 28.5523 9.44772 29 10 29H38C38.5523 29 39 28.5523 39 28V20C39 19.4477 38.5523 19 38 19ZM10 18C8.89543 18 8 18.8954 8 20V28C8 29.1046 8.89543 30 10 30H38C39.1046 30 40 29.1046 40 28V20C40 18.8954 39.1046 18 38 18H10Z" fill="#C8C8C8"/>
<path d="M8 20C8 18.8954 8.89543 18 10 18H29V30H10C8.89543 30 8 29.1046 8 28V20Z" fill="#C8C8C8"/>
</svg>
